<svg width="135" height="30" viewBox="0 0 135 30" fill="none" xmlns="http://www.w3.org/2000/svg">
<path d="M28 8.70905L26.7593 12.9708L25.9672 12.1805L21.7839 16.1319L18.7806 18.9683L16.3251 21.2874L14.0129 18.9683L12.9229 17.8747L11.5739 16.5208L11.1695 16.1158L8.95471 13.8931L8.10371 14.7154L7.81883 14.9902L6.46975 16.296L5.11698 17.6036L3.72379 18.9505L3.70539 18.9683L1.71118 20.8949L0 22.5504L2.72392 18.9683L6.46975 14.0393L7.81883 12.2661L8.98595 10.7302L11.5739 13.3276L12.6803 14.4389L12.9229 14.6816L16.3747 18.1423L16.6798 17.8534L18.0289 16.5796L18.6281 16.0141L20.3723 14.3658L21.7839 13.0332L24.3718 10.5892L23.5778 9.79899L28 8.70905Z" fill="#2DFF34"/>
<path d="M6.46975 8.70905V14.0393L2.72392 18.9683H2.71289V8.70905H6.46975Z" fill="#FFCE5F"/>
<path d="M27.1545 16.0142C27.1545 23.726 20.6921 30 12.7446 30C8.69002 30 4.91844 28.3463 2.25154 25.5991C1.72587 25.0586 1.24431 24.477 0.810547 23.8562L2.46658 22.2561L5.12983 19.6855L5.87054 18.9683L6.46973 18.3903L7.81881 17.0845L8.11656 16.7973L8.82052 16.1159L8.93446 16.0035L8.9363 16.0052L8.99878 15.9446L11.5738 18.5277L12.6931 19.6516L16.3857 23.3568L18.639 21.2268L20.3851 19.5802L21.0321 18.9684L21.7838 18.2584L24.3827 15.8019L16.3378 26.5018L11.1804 21.3303L8.96566 19.1075L8.11652 19.9281L5.12979 22.8162L3.87444 24.0311C6.11864 26.3698 9.31122 27.7791 12.7446 27.7791C19.4294 27.7791 24.8662 22.5023 24.8662 16.0142H27.1545V16.0142Z" fill="#00B7FF"/>
<path d="M11.5739 5.60332V13.3276L8.98597 10.7302L7.81885 12.2662V5.60332H11.5739Z" fill="#FFCE5F"/>
<path d="M16.6798 3.08618V17.8534L16.3747 18.1424L12.923 14.6816V3.08618H16.6798Z" fill="#FFCE5F"/>
<path d="M21.7839 0V13.0333L20.3724 14.3658L18.6281 16.0142L18.0289 16.5797V0H21.7839Z" fill="#FFCE5F"/>
<path d="M53.1965 15.408C53.1965 18 52.4285 20.232 50.9885 21.816L52.7885 23.64L50.7005 25.8L48.5405 23.616C47.4365 24.12 46.1405 24.384 44.7005 24.384C39.2525 24.384 36.2045 20.592 36.2045 15.408C36.2045 10.248 39.2525 6.456 44.7005 6.456C50.1005 6.456 53.1965 10.248 53.1965 15.408ZM44.7005 20.856C45.0605 20.856 45.3965 20.832 45.7085 20.76L43.6685 18.696L45.7565 16.536L48.1085 18.912C48.5885 17.952 48.7805 16.728 48.7805 15.408C48.7805 12.432 47.8205 9.984 44.7005 9.984C41.5565 9.984 40.6205 12.432 40.6205 15.408C40.6205 18.408 41.5565 20.856 44.7005 20.856ZM62.5035 18.816V11.712H66.3435V24H62.5035V22.224H62.4555C61.8075 23.352 60.6075 24.384 58.4235 24.384C56.0475 24.384 54.4395 22.824 54.4395 20.016V11.712H58.2795V18.792C58.2795 20.64 58.9275 21.264 60.1995 21.264C61.6635 21.264 62.5035 20.52 62.5035 18.816ZM71.6248 24.384C69.2248 24.384 67.7128 22.968 67.7128 20.784C67.7128 18.24 69.8008 17.256 72.4168 16.704C73.7608 16.416 75.6568 16.224 75.6568 15C75.6568 14.328 75.1288 13.896 74.0248 13.896C72.6088 13.896 71.9608 14.472 71.8408 15.672H68.1928C68.3128 13.32 70.0408 11.304 74.1928 11.304C77.5288 11.304 79.3768 12.648 79.3768 16.416V21.168C79.3768 21.816 79.4488 22.104 79.8328 22.104C79.9288 22.104 80.0008 22.104 80.1448 22.08V23.904C79.3768 24.048 78.5848 24.12 78.0328 24.12C76.4968 24.12 75.9208 23.544 75.7288 22.512H75.6808C74.8168 23.592 73.4008 24.384 71.6248 24.384ZM73.2328 21.744C74.7688 21.744 75.6568 20.448 75.6568 19.032V18C75.1528 18.192 74.5768 18.336 73.5688 18.576C72.1528 18.912 71.6488 19.512 71.6488 20.376C71.6488 21.312 72.2488 21.744 73.2328 21.744ZM89.4437 11.328C91.8197 11.328 93.4277 12.888 93.4277 15.696V24H89.5877V16.92C89.5877 15.072 88.9397 14.448 87.6677 14.448C86.2037 14.448 85.3637 15.192 85.3637 16.896V24H81.5237V11.712H85.3637V13.488H85.4117C86.0597 12.36 87.2597 11.328 89.4437 11.328ZM101.184 21.36C101.544 21.36 101.76 21.336 102.216 21.264V23.976C101.4 24.168 100.704 24.24 99.9358 24.24C97.2478 24.24 96.0958 23.016 96.0958 20.016V14.592H94.3918V11.712H96.0958V8.28H99.9358V11.712H102.072V14.592H99.9358V19.92C99.9358 21.24 100.44 21.36 101.184 21.36ZM107.477 10.248H103.637V6.84H107.477V10.248ZM107.477 24H103.637V11.712H107.477V24ZM116.815 24H112.591L108.343 11.712H112.231L114.727 19.824H114.775L117.271 11.712H121.063L116.815 24ZM127.392 24.408C123.336 24.408 120.864 21.768 120.864 17.88C120.864 14.016 123.336 11.304 127.464 11.304C131.52 11.304 133.992 13.944 133.992 17.808C133.992 21.696 131.52 24.408 127.392 24.408ZM127.44 21.528C129.144 21.528 130.104 20.232 130.104 17.856C130.104 15.48 129.144 14.184 127.44 14.184C125.712 14.184 124.752 15.48 124.752 17.856C124.752 20.232 125.712 21.528 127.44 21.528Z" fill="white"/>
</svg>
